<svg width="27" height="31" viewBox="0 0 27 31" fill="none" xmlns="http://www.w3.org/2000/svg">
<path d="M25.3729 15.0846C25.1813 15.0849 24.9977 15.1611 24.8622 15.2965C24.7268 15.432 24.6505 15.6156 24.6503 15.8072V28.6901H16.8906V20.6043C16.8903 20.4127 16.8141 20.2291 16.6786 20.0936C16.5432 19.9582 16.3595 19.882 16.168 19.8817H10.5026C10.311 19.882 10.1273 19.9582 9.99186 20.0936C9.8564 20.2291 9.78017 20.4127 9.77989 20.6043V27.0173C9.77989 27.2091 9.85608 27.393 9.99171 27.5287C10.1273 27.6643 10.3113 27.7405 10.5031 27.7405C10.6949 27.7405 10.8788 27.6643 11.0144 27.5287C11.1501 27.393 11.2263 27.2091 11.2263 27.0173V21.329H15.44V28.6933H2.01919V10.9964L13.3342 1.92358L24.9221 11.2081C24.9961 11.2675 25.0812 11.3118 25.1724 11.3383C25.2636 11.3649 25.3591 11.3732 25.4535 11.3628C25.5479 11.3524 25.6393 11.3236 25.7225 11.2779C25.8058 11.2322 25.8792 11.1705 25.9386 11.0965C25.998 11.0224 26.0423 10.9373 26.0688 10.8462C26.0954 10.755 26.1037 10.6595 26.0933 10.5651C26.083 10.4707 26.0541 10.3793 26.0084 10.296C25.9627 10.2128 25.901 10.1394 25.827 10.0799L13.7872 0.431986C13.6589 0.328974 13.4993 0.272827 13.3347 0.272827C13.1702 0.272827 13.0106 0.328974 12.8823 0.431986L0.84355 10.0799C0.758965 10.1477 0.690712 10.2337 0.643847 10.3314C0.596983 10.4291 0.572706 10.5362 0.572815 10.6446V29.4138C0.572815 29.6054 0.648952 29.7892 0.784477 29.9247C0.920002 30.0603 1.10381 30.1364 1.29547 30.1364H25.3729C25.5646 30.1364 25.7484 30.0603 25.8839 29.9247C26.0194 29.7892 26.0956 29.6054 26.0956 29.4138V15.8083C26.0957 15.7133 26.0771 15.6192 26.0409 15.5314C26.0046 15.4436 25.9514 15.3638 25.8843 15.2966C25.8172 15.2294 25.7375 15.1761 25.6497 15.1397C25.562 15.1033 25.4679 15.0846 25.3729 15.0846Z" fill="white" stroke="white" stroke-width="0.5"/>
</svg>
