<svg width="31" height="29" viewBox="0 0 31 29" fill="none" xmlns="http://www.w3.org/2000/svg">
<path d="M15.8138 16.163C17.3913 16.1607 18.9327 15.691 20.2434 14.8132C21.554 13.9354 22.5752 12.6889 23.1778 11.2312C23.7804 9.77341 23.9375 8.16977 23.6292 6.62279C23.3209 5.07581 22.561 3.6549 21.4455 2.53951C20.3301 1.42412 18.9091 0.664296 17.362 0.355999C15.815 0.0477023 14.2113 0.204765 12.7534 0.80735C11.2956 1.40993 10.049 2.43101 9.1712 3.74161C8.29337 5.05221 7.82364 6.59355 7.82135 8.17095C7.82191 10.2904 8.66414 12.3229 10.1629 13.8216C11.6617 15.3202 13.6943 16.1624 15.8138 16.163ZM15.8138 2.28673C16.9777 2.28673 18.1154 2.63184 19.0831 3.2784C20.0508 3.92497 20.805 4.84396 21.2504 5.91916C21.6958 6.99436 21.8123 8.17748 21.5853 9.3189C21.3582 10.4603 20.7977 11.5088 19.9748 12.3317C19.1518 13.1546 18.1033 13.7151 16.9618 13.9421C15.8203 14.1691 14.6371 14.0526 13.5619 13.6073C12.4866 13.1619 11.5676 12.4077 10.921 11.44C10.2744 10.4724 9.92929 9.33474 9.92929 8.17095C9.93319 6.61155 10.5544 5.11714 11.6571 4.01448C12.7598 2.91182 14.2543 2.29063 15.8138 2.28673Z" fill="white"/>
<path d="M1.9853 28.6424H29.7393C29.8779 28.6434 30.0153 28.6168 30.1435 28.5642C30.2718 28.5116 30.3883 28.4341 30.4863 28.3361C30.5844 28.2381 30.6619 28.1216 30.7145 27.9933C30.7671 27.8651 30.7937 27.7277 30.7927 27.5891C30.7896 24.9306 29.7322 22.3819 27.8523 20.5022C25.9724 18.6224 23.4236 17.565 20.765 17.5619H10.9596C8.30117 17.565 5.75253 18.6222 3.87266 20.5018C1.9928 22.3814 0.935204 24.9298 0.931858 27.588C0.930737 27.7267 0.957212 27.8642 1.00974 27.9926C1.06227 28.121 1.13981 28.2376 1.23784 28.3357C1.33587 28.4339 1.45244 28.5115 1.58076 28.5641C1.70908 28.6168 1.8466 28.6434 1.9853 28.6424ZM10.9585 19.6697H20.765C22.6826 19.6692 24.5352 20.3649 25.9783 21.6276C27.4215 22.8903 28.357 24.634 28.611 26.5346H3.11353C3.37178 24.6358 4.30854 22.8946 5.75076 21.6328C7.19298 20.3709 9.04319 19.6736 10.9596 19.6697H10.9585Z" fill="white"/>
</svg>
