<svg width="31" height="31" viewBox="0 0 31 31" fill="none" xmlns="http://www.w3.org/2000/svg">
<path d="M30.3639 21.8585C26.8539 18.3455 26.3271 16.5821 26.3271 10.9686C26.341 9.58749 26.0809 8.21728 25.562 6.93725C25.043 5.65722 24.2754 4.49276 23.3036 3.51119C22.3318 2.52963 21.175 1.75043 19.9002 1.21866C18.6254 0.686888 17.2578 0.413086 15.8765 0.413086C14.4952 0.413086 13.1276 0.686888 11.8528 1.21866C10.5779 1.75043 9.42119 2.52963 8.44938 3.51119C7.47756 4.49276 6.70998 5.65722 6.19101 6.93725C5.67203 8.21728 5.41196 9.58749 5.42582 10.9686C5.55424 12.8313 5.38641 14.7025 4.9286 16.5126C4.21846 18.5669 2.9971 20.4066 1.37956 21.8585C1.17106 22.0673 1.02907 22.3331 0.971478 22.6225C0.91389 22.9119 0.943292 23.2118 1.05597 23.4845C1.16866 23.7572 1.35957 23.9904 1.60464 24.1547C1.8497 24.319 2.13794 24.407 2.433 24.4077H10.7215L10.6467 25.1546C10.6467 26.5404 11.1972 27.8695 12.1772 28.8494C13.1572 29.8294 14.4864 30.3799 15.8723 30.3799C17.2582 30.3799 18.5873 29.8294 19.5673 28.8494C20.5473 27.8695 21.0979 26.5404 21.0979 25.1546L21.0231 24.4077H29.3084C29.6038 24.408 29.8927 24.3205 30.1384 24.1564C30.3842 23.9924 30.5756 23.7591 30.6887 23.4861C30.8017 23.2131 30.8312 22.9128 30.7734 22.623C30.7156 22.3333 30.5731 22.0672 30.3639 21.8585ZM15.8728 28.8867C14.8828 28.8864 13.9335 28.493 13.2336 27.7929C12.5336 27.0928 12.1405 26.1434 12.1405 25.1535L12.2153 24.4067H19.5293L19.6051 25.1535C19.6051 26.1434 19.2119 27.0928 18.512 27.7929C17.8121 28.493 16.8628 28.8864 15.8728 28.8867ZM2.43511 22.914C6.91434 18.435 6.91434 15.4487 6.91434 10.9686C6.91434 8.59298 7.85812 6.31461 9.53805 4.63476C11.218 2.95491 13.4965 2.01118 15.8723 2.01118C18.2481 2.01118 20.5265 2.95491 22.2065 4.63476C23.8864 6.31461 24.8302 8.59298 24.8302 10.9686C24.8302 15.4476 24.8302 18.434 29.3094 22.914H2.43511Z" fill="white"/>
</svg>
