<svg width="31" height="30" viewBox="0 0 31 30" fill="none" xmlns="http://www.w3.org/2000/svg">
<path d="M29.2768 11.8769L27.1804 11.5208C26.9633 10.8181 26.6812 10.1371 26.3377 9.48676L27.5734 7.75921C27.8278 7.4039 27.9474 6.96962 27.9107 6.53416C27.874 6.09871 27.6835 5.69054 27.3732 5.38278L25.5139 3.52356C25.3433 3.35128 25.1401 3.21461 24.9162 3.12149C24.6923 3.02836 24.4522 2.98063 24.2097 2.98106C23.8267 2.97993 23.4531 3.10014 23.1426 3.32447L21.4086 4.55903C20.7362 4.20228 20.0305 3.91193 19.3017 3.6921L18.9531 1.62115C18.8817 1.18926 18.6589 0.796874 18.3246 0.514293C17.9903 0.231712 17.5663 0.0773963 17.1285 0.0789917H14.5023C14.0652 0.0781068 13.6421 0.232614 13.3084 0.514918C12.9748 0.797221 12.7523 1.18893 12.6809 1.62009L12.3164 3.74161C11.6148 3.96116 10.9357 4.24722 10.2885 4.5959L8.57561 3.36134C8.22005 3.10756 7.78588 2.98836 7.35057 3.02502C6.91527 3.06168 6.50715 3.25181 6.19904 3.56148L4.3334 5.41965C4.02447 5.72817 3.83486 6.13617 3.79822 6.57122C3.76158 7.00627 3.88028 7.44024 4.13325 7.79608L5.38157 9.54997C5.04055 10.2021 4.76259 10.8854 4.55146 11.5904L2.4804 11.9401C2.04939 12.0115 1.6578 12.2338 1.3755 12.5672C1.09321 12.9006 0.938578 13.3235 0.939213 13.7603V16.3864C0.938328 16.8235 1.09284 17.2466 1.37516 17.5802C1.65748 17.9139 2.04921 18.1363 2.4804 18.2077L4.60203 18.569C4.82159 19.2706 5.10767 19.9496 5.45637 20.5968L4.227 22.3054C3.97259 22.6607 3.85301 23.095 3.88969 23.5304C3.92636 23.9659 4.1169 24.3741 4.42716 24.6818L6.28648 26.541C6.45711 26.7133 6.66026 26.85 6.88413 26.9431C7.10801 27.0362 7.34816 27.084 7.59064 27.0835C7.9737 27.0847 8.34728 26.9645 8.65777 26.7401L10.4096 25.495C11.0408 25.8243 11.7005 26.0958 12.3806 26.3061L12.7304 28.4024C12.8018 28.8335 13.0243 29.2252 13.3579 29.5076C13.6916 29.7899 14.1147 29.9444 14.5518 29.9435H17.1854C17.6224 29.9444 18.0456 29.7899 18.3792 29.5076C18.7129 29.2252 18.9353 28.8335 19.0068 28.4024L19.3628 26.3061C20.0656 26.0891 20.7466 25.8069 21.397 25.4634L23.1247 26.6991C23.4375 26.9235 23.8131 27.0436 24.1981 27.0425C24.4406 27.0429 24.6808 26.9952 24.9046 26.902C25.1285 26.8089 25.3317 26.6722 25.5023 26.5L27.3616 24.6407C27.6705 24.3322 27.8602 23.9242 27.8968 23.4892C27.9334 23.0541 27.8147 22.6202 27.5618 22.2643L26.3271 20.5294C26.6711 19.8792 26.9533 19.1982 27.1699 18.4953L29.2662 18.1456C29.6974 18.0741 30.0892 17.8517 30.3715 17.5181C30.6538 17.1844 30.8083 16.7613 30.8074 16.3243V13.6982C30.8132 13.2615 30.6618 12.8372 30.3808 12.5029C30.0998 12.1685 29.708 11.9464 29.2768 11.8769ZM29.1335 16.3253C29.1342 16.3644 29.1207 16.4023 29.0955 16.4322C29.0703 16.462 29.0352 16.4817 28.9966 16.4876L26.3766 16.9247C26.2168 16.9518 26.0682 17.0245 25.9486 17.134C25.829 17.2435 25.7435 17.3851 25.7024 17.542C25.4666 18.4602 25.1013 19.3402 24.6174 20.1554C24.5343 20.2957 24.4937 20.457 24.5004 20.6198C24.5071 20.7826 24.561 20.94 24.6553 21.0729L26.1965 23.244C26.2177 23.276 26.2273 23.3143 26.2239 23.3526C26.2205 23.3909 26.2041 23.4269 26.1776 23.4546L24.3182 25.3139C24.303 25.33 24.2845 25.3428 24.264 25.3513C24.2435 25.3598 24.2214 25.3639 24.1992 25.3634C24.1653 25.3635 24.1323 25.3524 24.1054 25.3318L21.9406 23.7907C21.8077 23.6963 21.6503 23.6425 21.4875 23.6358C21.3246 23.629 21.1633 23.6697 21.0231 23.7527C20.2078 24.2366 19.3278 24.6019 18.4095 24.8377C18.2518 24.8771 18.1091 24.962 17.9993 25.0819C17.8896 25.2018 17.8175 25.3513 17.7922 25.5119L17.3497 28.1317C17.3439 28.1703 17.3242 28.2054 17.2943 28.2306C17.2645 28.2558 17.2265 28.2693 17.1875 28.2686H14.5581C14.5191 28.2693 14.4811 28.2558 14.4512 28.2306C14.4214 28.2054 14.4017 28.1703 14.3959 28.1317L13.9587 25.5119C13.9316 25.352 13.8589 25.2034 13.7494 25.0838C13.6399 24.9643 13.4982 24.8788 13.3414 24.8377C12.4458 24.6041 11.5856 24.2515 10.7836 23.7896C10.6551 23.7166 10.51 23.6778 10.3622 23.6769C10.1876 23.6758 10.0171 23.7304 9.87555 23.8328L7.68966 25.3897C7.66185 25.4085 7.62944 25.4195 7.59591 25.4213C7.57378 25.4213 7.55186 25.417 7.53143 25.4085C7.511 25.4 7.49246 25.3875 7.47687 25.3718L5.6186 23.5115C5.59203 23.4837 5.57569 23.4478 5.57224 23.4095C5.5688 23.3712 5.57846 23.3329 5.59964 23.3008L7.1345 21.1467C7.22859 21.0127 7.28219 20.8544 7.28891 20.6909C7.29563 20.5273 7.2552 20.3652 7.17242 20.2239C6.68342 19.4116 6.31375 18.5332 6.07474 17.6157C6.03236 17.4595 5.9465 17.3186 5.82714 17.2093C5.70779 17.1001 5.55984 17.0269 5.40054 16.9984L2.76167 16.5497C2.72306 16.5438 2.6879 16.5242 2.66271 16.4943C2.63752 16.4645 2.62402 16.4265 2.62472 16.3875V13.7603C2.62402 13.7213 2.63752 13.6833 2.66271 13.6535C2.6879 13.6237 2.72306 13.604 2.76167 13.5981L5.36366 13.162C5.52546 13.1355 5.67603 13.0624 5.7969 12.9517C5.91777 12.8409 6.00371 12.6973 6.04419 12.5384C6.2729 11.6187 6.63152 10.7362 7.10922 9.9176C7.19139 9.77796 7.23106 9.6174 7.22339 9.45557C7.21572 9.29374 7.16104 9.13766 7.06603 9.00642L5.5122 6.82065C5.49102 6.78858 5.48136 6.75027 5.48481 6.71199C5.48825 6.67372 5.5046 6.63774 5.53116 6.60997L7.39049 4.75286C7.40573 4.7367 7.42421 4.72394 7.44473 4.71541C7.46524 4.70688 7.48732 4.70277 7.50952 4.70335C7.54342 4.70319 7.5764 4.7143 7.60328 4.73495L9.75441 6.26867C9.88842 6.36276 10.0466 6.41635 10.2102 6.42308C10.3739 6.4298 10.5359 6.38937 10.6772 6.3066C11.4895 5.81726 12.3679 5.44724 13.2855 5.20792C13.4417 5.16555 13.5827 5.07969 13.692 4.96034C13.8012 4.84099 13.8744 4.69305 13.9029 4.53375L14.3516 1.89503C14.3575 1.85642 14.3772 1.82126 14.407 1.79607C14.4368 1.77089 14.4748 1.75739 14.5139 1.75809H17.1411C17.1802 1.75739 17.2181 1.77089 17.248 1.79607C17.2778 1.82126 17.2975 1.85642 17.3034 1.89503L17.7405 4.49688C17.767 4.65867 17.8401 4.80923 17.9509 4.93009C18.0617 5.05096 18.2053 5.1369 18.3642 5.17737C19.3044 5.41325 20.2058 5.7829 21.041 6.275C21.1812 6.35808 21.3425 6.39871 21.5054 6.39198C21.6682 6.38525 21.8256 6.33144 21.9585 6.23707L24.1149 4.69071C24.1427 4.67187 24.1751 4.66095 24.2087 4.6591C24.2308 4.66004 24.2526 4.66537 24.2726 4.67477C24.2927 4.68417 24.3107 4.69747 24.3256 4.71388L26.1807 6.56784C26.2073 6.59561 26.2236 6.63158 26.2271 6.66986C26.2305 6.70813 26.2209 6.74644 26.1997 6.77851L24.6585 8.94532C24.5641 9.07821 24.5103 9.23561 24.5036 9.39845C24.4968 9.5613 24.5375 9.7226 24.6206 9.86282C25.1045 10.6781 25.4698 11.558 25.7056 12.4763C25.745 12.634 25.8299 12.7766 25.9498 12.8864C26.0697 12.9961 26.2192 13.0682 26.3798 13.0935L28.9997 13.536C29.0383 13.5418 29.0735 13.5615 29.0987 13.5913C29.1239 13.6212 29.1374 13.6592 29.1367 13.6982V16.3243L29.1335 16.3253Z" fill="white"/>
<path d="M15.8749 8.56287C14.6002 8.56287 13.3541 8.94083 12.2943 9.64898C11.2344 10.3571 10.4083 11.3636 9.92052 12.5412C9.43272 13.7188 9.30509 15.0146 9.55377 16.2648C9.80245 17.5149 10.4163 18.6632 11.3176 19.5645C12.219 20.4658 13.3673 21.0796 14.6175 21.3283C15.8677 21.577 17.1636 21.4493 18.3412 20.9616C19.5189 20.4738 20.5255 19.6478 21.2337 18.5879C21.9418 17.5281 22.3198 16.2821 22.3198 15.0075C22.3187 13.2986 21.6393 11.66 20.4309 10.4517C19.2225 9.24333 17.5838 8.56398 15.8749 8.56287ZM15.8749 19.7667C14.9333 19.7667 14.013 19.4875 13.2301 18.9644C12.4472 18.4414 11.8371 17.6979 11.4767 16.8281C11.1164 15.9583 11.0222 15.0012 11.2059 14.0778C11.3895 13.1544 11.8429 12.3062 12.5087 11.6404C13.1745 10.9747 14.0227 10.5213 14.9461 10.3376C15.8696 10.154 16.8268 10.2482 17.6966 10.6085C18.5665 10.9688 19.31 11.579 19.8331 12.3618C20.3562 13.1446 20.6354 14.065 20.6354 15.0064C20.6348 16.2689 20.1331 17.4794 19.2405 18.3722C18.3479 19.265 17.1374 19.7669 15.8749 19.7677V19.7667Z" fill="white"/>
</svg>
